<svg width="76" height="57" viewBox="0 0 76 57" fill="none" xmlns="http://www.w3.org/2000/svg">
<path d="M32.7546 1.8362C35.5299 -0.39056 39.7643 -0.684659 42.6687 1.46507C47.8107 5.26386 52.6874 9.41628 57.8329 13.2151C61.1772 15.939 64.5947 18.5754 68.0122 21.2118C70.4698 23.4525 73.3637 25.1541 75.8038 27.4194C76.31 27.8605 75.7096 28.4522 75.4268 28.8304C73.622 30.9031 72.1524 33.2489 70.2743 35.2551C69.7996 35.7487 69.1817 35.045 68.7628 34.7964C64.0501 30.9871 59.1594 27.4019 54.4747 23.5576C48.9103 19.4262 43.6566 14.8921 38.0607 10.8028C28.3317 18.1027 18.9169 25.8088 9.3136 33.2699C8.31172 34.0086 7.40061 34.9119 6.2591 35.4336C5.63075 35.4231 5.35497 34.7719 4.98843 34.3728C3.35122 32.153 1.50805 30.0838 0 27.7695C0.555045 27.1708 1.14849 26.6071 1.82572 26.145C3.98306 24.692 5.8018 22.8013 7.96962 21.3588C16.1731 14.7801 24.5581 8.42194 32.7546 1.8362Z" fill="#a8c1f7"/>
<path d="M12.4279 2.6066C15.8245 2.59959 19.2211 2.57159 22.6177 2.6206C22.6107 3.70947 22.5967 4.79834 22.5199 5.88721C19.0954 8.38006 15.9082 11.195 12.4488 13.6423C12.379 9.96609 12.4244 6.28635 12.4279 2.6066Z" fill="#2563eb"/>
<path d="M41.7586 31.2462C43.8112 28.5257 45.8568 25.7808 48.1154 23.2319C52.458 26.8627 57.0031 30.2448 61.3876 33.823C62.7246 35.0344 63.6113 36.7955 63.6078 38.6197C63.6357 42.0088 63.6113 45.398 63.6183 48.7871C63.6846 51.8367 61.7961 54.8127 59.0662 56.1291C57.7571 56.7978 56.2631 56.9729 54.8144 57.0009C43.525 56.9904 32.239 56.9939 20.9531 56.9974C17.4867 57.0954 14.0622 54.8967 12.9242 51.5741C12.2469 49.6694 12.4285 47.6212 12.4145 45.636C12.4389 42.1419 12.3761 38.6477 12.4459 35.1535C15.8425 32.5906 19.0785 29.8107 22.5449 27.3493C22.6217 33.816 22.5275 40.2862 22.5868 46.7564C32.8918 46.7844 43.1968 46.8054 53.5018 46.7424C53.5402 44.7292 53.4879 42.7126 53.5402 40.6994C49.7247 37.4188 45.6718 34.4112 41.7586 31.2462Z" fill="#2563eb"/>
</svg>
