<svg width="1732" height="513" viewBox="0 0 1732 513" fill="none" xmlns="http://www.w3.org/2000/svg">
<path d="M1343.93 16.4776C1368.84 -3.5048 1406.84 -6.14398 1432.9 13.1472C1479.04 47.2368 1522.81 84.4996 1568.98 118.589C1598.99 143.033 1629.66 166.692 1660.33 190.35C1682.38 210.458 1708.35 225.728 1730.25 246.056C1734.79 250.015 1729.4 255.324 1726.87 258.718C1710.67 277.318 1697.48 298.368 1680.63 316.371C1676.37 320.801 1670.82 314.486 1667.06 312.255C1624.77 278.072 1580.89 245.899 1538.85 211.401C1488.91 174.326 1441.77 133.639 1391.55 96.9416C1304.24 162.45 1219.76 231.603 1133.58 298.557C1124.59 305.186 1116.41 313.292 1106.17 317.974C1100.53 317.879 1098.06 312.036 1094.77 308.454C1080.07 288.534 1063.53 269.966 1050 249.198C1054.98 243.825 1060.31 238.767 1066.38 234.619C1085.74 221.581 1102.07 204.614 1121.52 191.67C1195.14 132.633 1270.38 75.5767 1343.93 16.4776Z" fill="#2E1F64"/>
<path d="M1161.56 23.3921C1192.04 23.3293 1222.52 23.0779 1253 23.5178C1252.94 33.2891 1252.81 43.0603 1252.12 52.8316C1221.39 75.2019 1192.79 100.463 1161.75 122.425C1161.12 89.4347 1161.53 56.4134 1161.56 23.3921Z" fill="#2E1F64"/>
<path d="M1424.77 280.397C1443.19 255.985 1461.55 231.352 1481.81 208.479C1520.78 241.061 1561.57 271.412 1600.92 303.522C1612.91 314.393 1620.87 330.196 1620.84 346.566C1621.09 376.979 1620.87 407.393 1620.93 437.806C1621.53 465.172 1604.58 491.878 1580.08 503.692C1568.34 509.693 1554.93 511.264 1541.93 511.515C1440.62 511.421 1339.34 511.452 1238.06 511.484C1206.96 512.363 1176.23 492.632 1166.01 462.816C1159.94 445.724 1161.57 427.344 1161.44 409.529C1161.66 378.173 1161.1 346.817 1161.72 315.461C1192.2 292.462 1221.24 267.516 1252.35 245.428C1253.04 303.459 1252.19 361.521 1252.73 419.583C1345.2 419.835 1437.68 420.023 1530.15 419.458C1530.49 401.392 1530.02 383.294 1530.49 365.229C1496.26 335.789 1459.89 308.8 1424.77 280.397Z" fill="#2E1F64"/>
<path d="M94.2476 331.665V250.06C95.8498 250.06 97.2435 250.06 98.6242 250.06C119.27 250.06 139.928 250.177 160.574 250.008C171.359 249.917 182.079 249.187 192.603 246.296C213.64 240.525 229.309 228.021 239.873 209.108C250.749 189.674 252.56 168.768 249.421 147.093C247.441 133.43 242.439 121.107 234.246 110.023C222.901 94.6657 207.192 86.5247 188.839 83.2553C173.508 80.5199 158.164 80.8716 143.015 85.0268C125.105 89.9504 111.572 100.696 101.828 116.262C91.4341 132.843 86.4063 151.222 86.276 170.604C85.8462 240.148 85.8462 309.691 85.742 379.221C85.6768 419.809 85.7159 460.396 85.7159 500.984C85.7159 502.273 85.7159 503.576 85.7159 505.139H0.203358C0.13823 503.901 0.0340258 502.638 0.0340258 501.375C0.0340258 395.151 -0.0701783 288.941 0.0861279 182.718C0.125204 157.996 2.65216 133.56 10.3763 109.814C20.458 78.8266 37.6387 52.9058 63.5725 32.9768C87.0966 14.9234 113.812 5.0631 143.185 1.61134C162.28 -0.629049 181.297 -0.524845 200.288 1.87185C231.471 5.81858 260.193 16.1478 284.355 36.8975C303.073 52.971 317.401 72.392 326.883 95.3169C336.705 119.036 340.209 143.798 339.896 169.315C339.596 194.155 335.285 218.096 324.943 240.76C313.793 265.209 297.316 285.047 274.208 299.231C252.677 312.439 229.687 321.844 204.952 326.872C189.933 329.92 174.758 331.652 159.414 331.665C138.769 331.691 118.11 331.678 97.4649 331.678C96.5271 331.678 95.5893 331.678 94.2476 331.678V331.665Z" fill="#2E1F64"/>
<path d="M608.834 325.856C609.12 297.564 615.62 268.283 630.756 241.385C636.135 231.824 642.544 222.693 649.552 214.253C661.157 200.25 674.326 187.733 689.631 177.677C707.776 165.759 727.496 157.709 748.78 153.489C766.586 149.946 784.522 149.099 802.589 150.649C831.388 153.111 857.817 162.45 882.018 178.146C908.03 195.027 928.324 217.223 942.886 244.576C953.632 264.753 960.302 286.18 962.972 308.948C965.551 330.87 964.483 352.558 959.598 373.985C953.633 400.231 942.352 424.081 925.602 445.26C900.58 476.899 868.406 497.558 829.356 507.236C806.952 512.785 784.196 513.631 761.246 510.557C730.818 506.493 703.373 495.109 679.107 476.587C650.568 454.795 630.574 426.595 618.798 392.572C611.595 371.731 608.3 350.33 608.821 325.856H608.834ZM691.898 331.899C691.976 333.449 692.093 335.82 692.184 338.191C693.018 358.836 697.942 378.257 709.834 395.451C719.147 408.906 731.157 419.249 746.357 425.566C765.01 433.316 784.405 434.957 804.243 431.883C833.433 427.363 854.925 411.941 868.797 385.929C876.808 370.911 880.338 354.759 881.067 337.826C882.174 312.309 877.72 288.212 863.105 266.785C852.007 250.516 837.184 238.988 818.063 233.348C801.625 228.503 784.952 227.747 768.097 230.405C738.555 235.068 717.271 251.219 703.49 277.453C694.685 294.203 692.067 312.413 691.872 331.899H691.898Z" fill="#2E1F64"/>
<path d="M454.417 505.295H373.021C373.021 504.005 373.021 502.755 373.021 501.505C373.021 437.067 373.034 372.643 373.021 308.206C373.021 285.62 374.701 263.229 380.211 241.229C386.723 215.217 399.58 193.477 422.387 178.433C434.41 170.5 447.826 165.928 461.542 162.02C473.148 158.712 485.04 157.331 497.01 157.201C529.157 156.849 561.317 156.862 593.477 156.745C594.285 156.745 595.093 156.875 596.109 156.954V235.51C594.767 235.51 593.399 235.51 592.032 235.51C563.909 235.51 535.787 235.328 507.665 235.628C499.915 235.706 492.022 236.566 484.48 238.298C469.032 241.854 460.904 252.444 457.869 267.736C455.029 282.025 454.534 296.483 454.495 310.915C454.326 374.037 454.417 437.172 454.417 500.293C454.417 501.817 454.417 503.354 454.417 505.269V505.295Z" fill="#2E1F64"/>
</svg>
